<svg width="8" height="16" viewBox="0 0 8 6" fill="none" xmlns="http://www.w3.org/2000/svg">
  <path d="M2.90009 3.93451L6.54908 0.249222C6.70845 0.0895963 6.92403 0 7.14874 0C7.37345 0 7.58903 0.0895963 7.7484 0.249222C7.82812 0.328895 7.8914 0.423685 7.93459 0.528124C7.97777 0.632563 8 0.744583 8 0.857723C8 0.970863 7.97777 1.08288 7.93459 1.18732C7.8914 1.29176 7.82812 1.38655 7.7484 1.46622L3.4955 5.75144C3.33707 5.90978 3.12323 5.99904 2.90009 5.99999C2.78815 6.00064 2.67718 5.97902 2.57355 5.93637C2.46991 5.89372 2.37566 5.83087 2.29618 5.75144L0.297315 3.72882C0.208274 3.65199 0.135958 3.55744 0.0849035 3.45111C0.0338488 3.34478 0.00515849 3.22897 0.000633837 3.11094C-0.00389082 2.9929 0.0158476 2.87521 0.0586102 2.76523C0.101373 2.65525 0.166236 2.55536 0.249129 2.47184C0.332022 2.38831 0.431156 2.32296 0.540306 2.27987C0.649457 2.23678 0.766269 2.21689 0.88341 2.22145C1.00055 2.22601 1.11549 2.25492 1.22102 2.30636C1.32655 2.3578 1.42038 2.43067 1.49663 2.52039L2.90009 3.93451Z" fill="white"/>
</svg>
