<svg width="30" height="30" viewBox="0 0 30 30" fill="none" xmlns="http://www.w3.org/2000/svg">
    <circle cx="15" cy="15.0001" r="15" fill="#FFC369"/>
    <path d="M13.6779 19.5C13.586 19.4997 13.4952 19.4807 13.411 19.4441C13.3268 19.4076 13.2512 19.3542 13.1887 19.2874L9.93166 15.8533C9.80991 15.7247 9.74468 15.5535 9.75034 15.3772C9.756 15.2009 9.83206 15.0341 9.96181 14.9134C10.0916 14.7928 10.2644 14.7281 10.4422 14.7337C10.62 14.7393 10.7883 14.8147 10.9101 14.9433L13.6712 17.8593L19.3073 11.7483C19.3645 11.6777 19.4356 11.6195 19.5164 11.5771C19.5971 11.5348 19.6857 11.5092 19.7768 11.5021C19.8679 11.4949 19.9594 11.5063 20.0459 11.5355C20.1324 11.5647 20.2119 11.6111 20.2796 11.6718C20.3473 11.7326 20.4018 11.8065 20.4397 11.8888C20.4776 11.9712 20.498 12.0604 20.4999 12.151C20.5017 12.2415 20.4848 12.3314 20.4503 12.4152C20.4158 12.4991 20.3644 12.575 20.2991 12.6384L14.1738 19.2808C14.1119 19.3488 14.0365 19.4034 13.9523 19.4411C13.8681 19.4788 13.777 19.4989 13.6846 19.5H13.6779Z" fill="white"/>
</svg>
